<svg width="100" height="159" viewBox="0 0 163 159" fill="none" xmlns="http://www.w3.org/2000/svg">
<path d="M96.5058 76.3015C96.5058 84.1015 96.5058 91.6015 96.5058 99.2015C96.5058 104.401 94.8058 106.901 91.2058 107.301C86.7058 107.901 83.8058 105.901 82.4058 101.001C81.9058 99.2015 81.5058 97.4015 80.9058 94.9015C80.3058 97.3015 80.0058 99.2015 79.5058 100.901C78.1058 105.701 75.2058 107.701 70.7058 107.201C67.1058 106.801 65.2058 104.201 65.3058 99.1015C65.5058 92.1015 65.8058 85.2015 66.3058 78.2015C66.4058 76.4015 66.3058 76.0015 64.2058 76.3015C57.7058 77.2015 54.3058 74.0015 54.9058 67.5015C55.7058 57.7015 57.9058 47.9015 61.0058 38.3015C62.4058 33.9015 65.7058 31.2015 69.9058 29.9015C77.3058 27.5015 84.8058 27.5015 92.3058 30.0015C96.9058 31.6015 99.8058 34.7015 101.206 39.4015C103.906 48.2015 105.806 57.2015 106.906 66.3015C108.006 74.4015 104.206 77.9015 96.5058 76.3015Z" fill="#028984"/>
<path d="M17.5058 89.5014C23.5058 86.9014 27.8058 89.5014 31.9058 93.4014C35.3058 96.6014 38.9058 99.5014 42.4058 102.601C45.6058 105.501 49.0058 107.801 52.9058 109.801C60.9058 113.801 66.3058 120.301 69.6058 128.401C71.2058 132.301 70.9058 136.301 69.8058 140.101C68.4058 145.001 67.7058 149.801 68.0058 154.801C68.1058 156.701 67.7058 158.601 65.4058 158.501C63.0058 158.501 62.9058 156.501 62.9058 154.701C62.9058 149.801 62.9058 145.101 64.4058 140.301C67.7058 130.001 62.6058 121.801 54.5058 117.001C43.9058 110.901 35.1058 102.801 25.9058 95.1014C23.7058 93.3014 21.2058 92.8014 19.1058 95.0014C16.8058 97.4014 18.7058 99.2014 20.5058 101.001C26.1058 106.401 31.6058 111.901 37.2058 117.401C38.6058 118.701 40.2058 120.201 38.3058 122.101C36.3058 124.101 34.9058 122.301 33.6058 121.001C27.7058 115.201 21.8058 109.301 15.8058 103.601C13.8058 101.701 13.0058 99.5014 12.8058 96.9014C12.2058 89.6014 11.7058 82.2014 11.2058 74.9014C11.1058 73.6014 11.1058 72.4014 10.4058 71.3014C9.50578 70.0014 8.30578 68.9014 6.70578 69.2014C4.70578 69.5014 5.30578 71.3014 5.30578 72.5014C5.30578 81.8014 5.40578 91.2014 5.20578 100.501C5.20578 103.201 6.30578 105.301 7.70578 107.401C13.0058 115.301 19.2058 122.601 25.0058 130.101C27.4058 133.201 29.5058 136.501 32.1058 139.301C36.5058 144.101 36.9058 149.701 36.5058 155.701C36.4058 157.401 35.7058 158.701 33.9058 158.701C32.2058 158.701 31.6058 157.401 31.4058 155.901C31.4058 155.801 31.4058 155.601 31.4058 155.501C33.1058 147.001 27.7058 141.501 23.0058 135.701C16.2058 127.301 9.30578 119.101 3.40578 110.001C1.10578 106.401 -0.0942193 102.701 0.00578065 98.4014C0.205781 89.8014 0.105783 81.2014 0.105783 72.6014C0.105783 67.1014 2.10578 64.2014 6.30578 63.9014C10.6058 63.5014 15.2058 66.8014 15.9058 71.3014C16.7058 76.3014 16.9058 81.5014 17.4058 86.5014C17.3058 87.5014 17.4058 88.3014 17.5058 89.5014Z" fill="#028984"/>
<path d="M161.906 86.3014C161.906 89.5014 161.606 92.8014 162.006 96.0014C162.706 102.801 160.306 108.401 156.306 113.601C149.006 123.001 141.806 132.501 134.406 141.801C131.706 145.201 130.006 148.701 130.706 153.101C130.806 154.101 130.806 155.101 130.706 156.101C130.606 157.601 129.806 158.801 128.106 158.801C126.506 158.801 125.606 157.701 125.506 156.101C125.206 150.101 125.406 144.501 129.706 139.301C137.906 129.301 146.006 119.301 153.406 108.701C155.706 105.401 156.906 102.101 156.806 97.9014C156.506 89.4014 156.706 81.0014 156.706 72.5014C156.706 71.3014 157.406 69.5014 155.306 69.2014C153.606 68.9014 152.406 70.0014 151.606 71.3014C150.806 72.5014 150.806 73.9014 150.706 75.3014C150.206 82.6014 149.606 90.0014 149.106 97.3014C148.906 99.6014 148.206 101.601 146.506 103.301C140.406 109.201 134.306 115.201 128.206 121.201C126.906 122.501 125.506 123.901 123.706 122.101C122.106 120.401 123.106 119.001 124.506 117.601C130.306 112.001 136.006 106.301 141.806 100.701C143.606 99.0014 145.006 97.1014 142.906 95.0014C141.006 93.0014 138.506 93.2014 136.406 94.9014C132.706 97.9014 129.106 101.101 125.606 104.301C121.106 108.301 116.606 112.101 110.906 114.801C104.506 117.801 100.406 123.201 97.6058 129.601C95.8058 133.701 96.7058 137.701 98.0058 141.601C99.5058 146.301 99.2058 151.201 99.2058 156.001C99.2058 157.601 98.4058 158.701 96.7058 158.701C95.1058 158.701 94.1058 157.501 94.3058 156.001C94.9058 149.801 93.2058 143.901 91.9058 138.001C90.8058 132.901 92.1058 128.401 94.6058 124.101C97.6058 118.701 101.606 113.701 107.306 111.001C115.406 107.201 121.306 100.901 128.006 95.4014C129.806 93.9014 131.606 92.3014 133.506 90.8014C135.906 88.9014 138.806 87.8014 141.606 88.8014C144.806 89.9014 144.706 88.5014 144.906 86.2014C145.206 81.5014 145.606 76.8014 146.206 72.1014C146.706 68.3014 149.106 65.8014 152.706 64.6014C157.906 62.9014 162.006 65.7014 162.106 71.0014C162.006 76.0014 161.906 81.1014 161.906 86.3014Z" fill="#028984"/>
<path d="M115.006 80.5015C114.106 82.9015 113.706 84.7015 112.806 86.3015C111.106 89.4015 108.206 90.0015 105.006 89.4015C102.406 88.9015 101.206 87.1015 101.006 84.6015C100.806 83.1015 100.906 81.7015 102.606 81.3015C104.106 80.9015 105.306 81.4015 105.806 83.1015C106.006 83.8015 106.206 84.7015 107.206 84.6015C108.406 84.5015 108.706 83.5015 108.906 82.5015C109.806 77.5015 110.806 72.5015 111.806 67.5015C111.906 67.0015 111.906 66.5015 112.006 66.0015C112.506 64.4015 112.306 62.3015 114.906 62.3015C117.406 62.3015 117.606 64.2015 117.906 65.9015C118.706 70.4015 119.506 75.0015 120.306 79.5015C120.506 80.6015 120.806 81.7015 121.006 82.8015C121.206 83.9015 121.906 84.8015 123.006 84.5015C124.106 84.3015 123.906 83.1015 123.906 82.3015C123.606 75.8015 123.306 69.4015 122.906 62.9015C122.506 56.8015 122.106 50.7015 121.706 44.6015C121.606 42.8015 121.506 40.9015 124.006 40.7015C126.406 40.6015 126.706 42.4015 127.006 44.2015C127.906 48.6015 128.306 53.1015 129.906 57.3015C130.306 58.3015 130.706 59.7015 132.106 59.4015C133.506 59.0015 133.106 57.5015 133.006 56.5015C131.606 48.4015 129.306 40.5015 126.906 32.7015C126.106 30.2015 123.606 29.3015 121.206 28.9015C115.006 27.8015 108.806 27.3015 103.406 31.4015C102.206 32.3015 100.706 32.2015 99.7058 30.9015C98.8058 29.7015 99.2058 28.6015 100.106 27.5015C105.606 21.0015 126.206 21.7015 130.706 28.9015C133.806 33.9015 134.306 40.0015 136.006 45.5015C137.006 48.7015 137.606 52.0015 138.206 55.3015C139.406 61.7015 136.406 65.0015 129.806 64.1015C127.606 63.8015 128.206 65.0015 128.306 66.0015C128.606 71.3015 129.006 76.7015 129.206 82.0015C129.306 86.4015 127.606 88.9015 124.406 89.4015C120.306 90.1015 117.606 88.3015 116.106 84.1015C115.706 83.2015 115.506 82.2015 115.006 80.5015Z" fill="#028984"/>
<path d="M47.2058 80.9015C45.7058 81.6015 46.3058 83.1015 45.9058 84.2015C44.5058 88.2015 42.0058 90.0015 37.9058 89.5015C34.6058 89.1015 32.7058 86.7015 32.8058 82.4015C32.9058 77.1015 33.4058 71.7015 33.7058 66.4015C33.8058 64.6015 34.0058 63.7015 31.4058 64.4015C27.1058 65.5015 23.6058 63.4015 23.7058 59.1015C24.0058 48.5015 27.2058 38.4015 31.4058 28.6015C32.5058 25.9015 35.7058 24.8015 38.6058 24.1015C44.9058 22.6015 51.1058 22.6015 57.3058 24.8015C58.8058 25.3015 60.1058 26.0015 61.2058 27.0015C62.5058 28.2015 63.7058 29.4015 62.1058 31.1015C60.8058 32.5015 59.5058 32.0015 58.1058 31.1015C51.7058 27.0015 44.9058 27.5015 38.0058 29.7015C36.3058 30.2015 35.1058 31.5015 34.6058 33.4015C32.7058 40.8015 30.8058 48.1015 28.8058 55.4015C28.7058 55.9015 28.6058 56.4015 28.6058 56.9015C28.6058 57.9015 28.4058 59.2015 29.6058 59.4015C30.8058 59.6015 31.3058 58.5015 31.7058 57.6015C33.2058 53.8015 33.7058 49.7015 34.5058 45.7015C34.6058 45.5015 34.5058 45.2015 34.6058 45.0015C35.0058 43.1015 34.8058 40.6015 37.7058 40.8015C40.8058 41.0015 40.0058 43.5015 39.9058 45.4015C39.2058 57.1015 38.5058 68.8015 37.8058 80.5015C37.7058 81.9015 36.7058 84.3015 38.9058 84.6015C41.0058 84.8015 40.8058 82.3015 41.1058 80.8015C42.1058 76.1015 42.8058 71.3015 43.7058 66.5015C44.0058 64.7015 44.0058 62.5015 46.6058 62.4015C49.3058 62.3015 49.4058 64.5015 49.7058 66.3015C50.7058 71.4015 51.6058 76.6015 52.5058 81.7015C52.7058 82.9015 52.8058 84.4015 54.4058 84.6015C55.9058 84.8015 55.5058 83.3015 56.0058 82.5015C56.7058 81.5015 57.7058 80.9015 58.9058 81.3015C60.3058 81.8015 61.0058 82.8015 60.7058 84.2015C60.3058 86.8015 59.3058 89.1015 56.3058 89.5015C53.0058 90.0015 50.1058 89.4015 48.6058 86.2015C48.2058 84.4015 47.8058 82.6015 47.2058 80.9015Z" fill="#028984"/>
<path d="M91.3058 11.6014C91.3058 17.9014 86.8058 22.8014 81.1058 22.8014C75.2058 22.9014 70.6058 17.8014 70.6058 11.4014C70.6058 5.00145 75.3058 -0.0985542 81.1058 0.00144579C86.9058 0.101446 91.3058 5.00145 91.3058 11.6014Z" fill="#028984"/>
<path d="M124.706 10.1015C124.706 15.7015 120.206 20.5015 114.906 20.5015C109.506 20.5015 104.906 15.5015 105.006 9.80146C105.106 4.30146 109.306 0.00146484 114.806 0.00146484C120.506 0.00146484 124.706 4.30147 124.706 10.1015Z" fill="#028984"/>
<path d="M47.0058 0.00146484C52.5058 0.00146484 56.9058 4.60147 56.9058 10.2015C56.9058 15.7015 52.1058 20.5015 46.9058 20.4015C41.8058 20.3015 37.3058 15.6015 37.2058 10.2015C37.1058 4.70147 41.5058 0.00146484 47.0058 0.00146484Z" fill="#028984"/>
<path d="M70.6058 95.4014C71.4058 81.2014 72.2058 67.7014 72.9058 54.1014C73.0058 53.0014 72.9058 51.9014 73.0058 50.7014C73.1058 49.1014 72.5058 47.9014 70.9058 47.7014C69.0058 47.4014 68.2058 48.7014 67.9058 50.4014C67.2058 55.2014 66.6058 60.0014 66.0058 64.8014C65.8058 66.5014 65.5058 68.3014 64.7058 69.8014C64.1058 70.9014 63.2058 72.0014 61.8058 71.6014C60.4058 71.2014 59.9058 70.0014 60.1058 68.6014C60.5058 65.1014 61.0058 61.7014 61.5058 58.3014C62.3058 52.5014 64.0058 46.9014 65.5058 41.3014C66.5058 37.2014 69.4058 35.0014 73.4058 34.1014C78.5058 32.9014 83.7058 32.9014 88.9058 34.1014C93.0058 35.1014 95.7058 37.4014 96.8058 41.7014C98.9058 49.5014 100.806 57.4014 101.806 65.4014C102.006 66.6014 101.906 67.9014 102.006 69.1014C102.006 70.3014 101.706 71.4014 100.506 71.8014C99.2058 72.1014 98.4058 71.2014 97.7058 70.3014C96.5058 68.7014 96.4058 66.8014 96.1058 65.0014C95.4058 60.6014 94.9058 56.1014 94.4058 51.7014C94.2058 49.7014 93.9058 47.7014 91.4058 47.8014C88.7058 48.0014 89.0058 50.2014 89.1058 52.1014C89.9058 67.3014 90.7058 82.4014 91.4058 97.6014C91.5058 99.2014 92.7058 102.001 90.2058 102.301C87.5058 102.701 87.6058 99.6014 87.2058 97.9014C85.9058 91.2014 84.9058 84.4014 83.9058 77.7014C83.6058 76.0014 83.0058 74.7014 81.3058 74.7014C79.3058 74.6014 78.7058 76.1014 78.4058 77.9014C77.1058 85.1014 76.5058 92.4014 74.8058 99.6014C74.4058 101.201 73.9058 102.801 72.1058 102.501C70.2058 102.201 71.0058 100.301 70.9058 99.0014C70.5058 97.5014 70.6058 96.2014 70.6058 95.4014Z" fill="#028984"/>
<path d="M86.1058 11.3015C86.1058 14.8015 84.0058 17.6015 81.1058 17.7015C78.2058 17.8015 75.9058 15.2015 75.8058 11.7015C75.7058 8.00147 78.0058 5.00146 80.9058 5.00146C83.7058 5.10146 86.1058 8.00146 86.1058 11.3015Z" fill="#028984"/>
<path d="M119.406 11.3014C119.306 13.2014 118.106 15.1014 115.006 15.2014C112.006 15.2014 110.406 13.5014 110.306 10.6014C110.206 7.70144 112.306 5.20144 114.806 5.10144C117.306 4.90144 119.406 7.30144 119.406 11.3014Z" fill="#F4F6F7"/>
<path d="M51.6058 11.0014C51.5058 13.0014 50.1058 15.1014 47.1058 15.2014C44.1058 15.3014 42.6058 13.3014 42.4058 10.4014C42.2058 7.60143 44.6058 5.00143 47.1058 5.10143C49.5058 5.10143 51.6058 7.40142 51.6058 11.0014Z" fill="#F4F7F8"/>
</svg>
