<svg width="100" height="177" viewBox="0 0 190 177" fill="none" xmlns="http://www.w3.org/2000/svg">
<path d="M84.1 158.3C87 161.4 89.9 164.3 92.8 167.2C94 168.4 95.2 168.3 96.5 167C100.3 163.2 104 159.3 107.7 155.5C113.4 149.6 119.2 143.7 124.9 137.8C126.1 136.6 127.4 136 129.1 136.7C130.5 137.2 131.3 138.3 131.5 139.8C131.7 141.1 131.2 142.1 130.3 143C120.6 153 110.9 163 101.1 172.9C97.5 176.5 91.7 176.4 88.1 172.9C84.8 169.7 81.7 166.5 78.6 163.1C77.8 162.3 77.2 162.1 76.1 162.5C70.5 165 64.5 166.1 58.4 166.1C57.4 166.1 56.8 166.4 56.2 167.1C54.3 169.4 52.3 171.7 50.3 173.9C47 177.6 42.9 177.9 39.3 174.6C29.3 165.6 19.4 156.6 9.49999 147.5C6.09999 144.4 5.89998 139.9 8.89998 136.4C10.5 134.6 12.4 132.9 13.6 130.8C14.9 128.6 13.5 126.1 13.4 123.7C13.1 115.8 13.7 108.1 16.6 100.7C16.9 99.8 16.7 99.3 16.1 98.7C7.59999 89.7 2.39999 79 0.799989 66.6C-1.50001 49.4 2.79998 34 13.7 20.7C22.9 9.49999 34.7 2.79999 48.8 0.799989C65.3 -1.50001 80.2 2.79999 93.1 13.7C94.4 14.8 95.1 14.8 96.5 13.7C107.7 4.29999 120.6 -1.01328e-05 135 0.59999C161.9 1.79999 184.6 22.6 188.4 50C191 69 185.7 85.5 172.8 99.3C166.8 105.7 160.6 111.9 154.4 118.2C152.7 120 150.4 120.1 148.8 118.6C147.2 117 147.3 114.8 149.1 112.9C154.9 106.9 160.7 100.9 166.6 95C176.9 84.4 181.9 71.7 181.6 56.8C181.2 34.7 164.7 14.1 143.6 9.49999C126.1 5.69999 110.8 9.99999 97.8 22.6C95.6 24.7 93.8 24.7 91.6 22.5C80.7 11.6 67.5 6.79999 52.4 7.99999C31.4 9.49999 12.8 26.5 8.69998 47.7C5.59998 63.8 9.09998 78.3 19.2 91C19.6 91.5 20.1 92 20.6 92.7C24.9 86.8 29.1 81 33.2 75.2C35.6 71.9 38 68.5 40.4 65.2C46.7 56.5 57.9 57.6 62.5 67.3C62.5 67.4 62.6 67.5 62.8 67.7C65.1 65.1 67.3 62.5 69.5 59.9C73.6 55.1 77.8 50.4 81.8 45.6C88 38.3 97.3 39 102.3 47.2C102.4 47.4 102.5 47.5 102.7 47.6C110.5 41 119.9 45.3 122.6 52.2C124.1 56.1 123.9 59.8 121.8 63.4C121.3 64.3 121.4 64.6 122.3 65.1C128.5 68.1 131.1 74.8 128.6 81.4C128.2 82.6 128.5 82.8 129.4 83.3C137.2 87 139.1 96.5 133.5 103.2C122 116.6 110.4 130 98.8 143.4C95.1 147.7 91.5 152.3 87 155.9C86.1 156.8 85.1 157.5 84.1 158.3Z" fill="#028984"/>
<path d="M143.1 128.2C143.1 130.3 141.4 132.1 139.4 132C137.5 131.9 135.8 130.2 135.8 128.2C135.8 126.1 137.6 124.4 139.6 124.4C141.5 124.5 143.1 126.1 143.1 128.2Z" fill="#028984"/>
<path d="M57.4 158.8C54.8 158 52.8 159.4 51.1 161.7C49.3 164.1 47.2 166.2 45.3 168.5C44.6 169.3 44.3 169.4 43.5 168.6C34 159.9 24.5 151.3 14.9 142.6C14.2 142 14.2 141.6 14.8 141C16.7 138.9 18.5 136.8 20.3 134.6C21.4 133.4 21.8 132 21.5 130.3C19.9 120.9 20 111.6 23.6 102.7C24.6 100.3 25.7 98 27.2 96C33.6 87.2 39.9 78.4 46.2 69.6C47.7 67.6 49.6 66.6 52 67.3C54.2 67.9 55.4 69.4 55.8 71.7C56 73 55.6 74.2 55 75.3C54.2 76.7 53.3 78.1 52.5 79.5C51.1 81.9 51.3 83.8 53.1 85.2C54.8 86.5 56.7 86.1 58.4 84.1C65.2 76.2 72 68.3 78.8 60.5C81.7 57.2 84.5 53.9 87.4 50.6C89.6 48.1 92.4 47.7 94.5 49.7C96.6 51.6 96.7 54.6 94.6 57.1C86.4 66.7 78.1 76.3 69.8 85.9C69.1 86.7 68.2 87.5 68 88.7C67.7 90.5 68.2 91.9 69.8 92.9C71.3 93.8 73.1 93.4 74.4 91.9C77.2 88.7 80 85.4 82.8 82.1C90.8 72.8 98.8 63.6 106.7 54.3C108.1 52.7 109.7 51.9 111.8 52.4C113.8 52.9 115.1 54.2 115.7 56.3C116.2 58.3 115.5 59.9 114.2 61.3C108.4 68 102.5 74.8 96.7 81.5C91.9 87.1 87 92.7 82.2 98.3C80.4 100.4 80.4 102.6 82.1 104.1C83.7 105.6 85.9 105.4 87.6 103.4C96 93.7 104.3 84.1 112.6 74.4C114.1 72.7 115.7 71.5 118 72C121.8 72.9 123.1 77.4 120.5 80.5C116.7 84.9 112.9 89.3 109.1 93.7C104.4 99.1 99.7 104.6 95.1 110C93.3 112.1 93.2 114.2 94.9 115.8C96.6 117.4 98.8 117.1 100.7 114.9C106.8 107.9 112.8 100.8 118.9 93.8C119.6 93 120.2 92.3 120.9 91.6C122.8 89.6 125.5 89.6 127.5 91.3C129.4 93 129.7 95.8 128.1 97.9C126.2 100.4 124.1 102.7 122 105C110.7 118.1 99.3 131.2 88 144.4C80.1 153.9 70 158.7 57.4 158.8Z" fill="#F7F7F8"/>
</svg>
