<svg width="100" height="182" viewBox="0 0 185 182" fill="none" xmlns="http://www.w3.org/2000/svg">
<path d="M139.1 32.8C151.3 32.7 158.9 41.3 160.3 49.5C161.6 57.2 161.7 64.9 156.3 71.6C155.3 72.9 154.1 74.1 152.7 75C152.1 75.4 151.8 75.9 151.9 76.6C152 77.4 152.7 77.2 153.2 77.3C157.2 78.3 161.4 79.1 165.2 80.5C167.4 81.3 169.1 81.2 170.9 80C171.8 79.4 172.9 79.1 173.7 78.5C176.6 76.3 180 76.3 183.4 76.4C184.3 76.4 184.4 76.8 184.4 77.5C184.4 90.9 184.4 104.3 184.4 117.8C184.4 118.9 183.7 119.1 183 119.5C166.2 127.7 149.5 136 132.7 144.1C131.5 144.7 131 145.3 130.9 146.7C130.8 150.5 127.5 154 123.7 154.5C122.5 154.7 122.1 155 122 156.2C121.6 159.7 118.4 162.8 114.8 163.3C113.7 163.4 113.3 163.8 113.1 164.8C112.4 168.8 109.6 171.4 105.5 172.1C104.7 172.2 104.5 172.4 104.3 173.2C102.7 180.7 94.8 183.4 88.8 178.6C88.6 178.5 88.4 178.3 88.3 178.1C87.2 176.8 86.2 176.6 84.4 177.3C79.1 179.5 73.2 176.1 72.2 170.6C72 169.6 71.7 169.2 70.7 169C66.6 168.2 63.9 165.5 63.3 161.5C63.2 160.7 62.9 160.5 62.1 160.3C57.7 159.4 55 156.9 54.3 152.5C54.2 151.8 53.9 151.7 53.3 151.6C49 150.9 46.3 148.3 45.5 144.1C45.3 143.3 45 142.8 44.3 142.4C42 141.1 39.8 139.8 37.6 138.4C36.7 137.8 36.2 137.9 36.1 139C36 140 35.4 140.1 34.5 140.2C30.8 140.6 27.5 139.4 24.1 138.3C16.9 136 9.80002 133.6 2.60002 131.3C1.30002 130.9 0.900024 130.3 0.900024 129C1.00002 110.1 1.00002 91.1 0.900024 72.2C0.900024 70.8 1.30002 70.6 2.70002 70.5C8.10002 70 12.9 71.1 17.3 74.3C19.5 75.9 22 77 24.4 78.4C25.2 78.9 25.8 79 26.7 78.7C28.6 78.1 30.6 77.7 32.6 77.2C33 77.1 33.6 77.2 33.6 76.5C33.6 75.9 33.5 75.5 33 75.1C26.7 70.4 24.4 64 24.6 56.5C24.7 52.6 24.6 48.8 26.3 45.2C30 37.4 36.2 33.3 44.9 32.9C45.8 32.9 46.5 32.8 45.8 31.7C45.7 31.6 45.7 31.4 45.6 31.2C44.8 29.3 43 27.2 43.5 25.4C43.9 23.7 46.2 22.4 47.7 21C51.1 17.6 54.6 14.3 57.9 10.9C58.6 10.2 59 10.2 59.8 10.7C62.1 12.3 64.5 13.7 66.8 15.2C67.6 15.7 68.2 15.9 69.2 15.4C71.9 13.9 74.9 12.7 77.9 11.9C78.9 11.6 79.2 11.2 79.4 10.2C79.9 7.40004 80.6 4.70003 81.1 2.00003C81.3 1.10003 81.7 0.900024 82.5 0.900024C89.2 0.900024 96 0.900024 102.7 0.900024C103.5 0.900024 103.9 1.10003 104.1 2.00003C104.6 4.80003 105.3 7.50004 105.8 10.2C106 11.1 106.4 11.6 107.3 11.8C110.3 12.7 113.2 13.9 116 15.3C116.8 15.7 117.4 15.8 118.2 15.2C120.5 13.6 123 12.1 125.4 10.6C126.2 10.1 126.6 10.1 127.3 10.8C131.9 15.4 136.6 19.9 141.2 24.5C141.9 25.1 142 25.6 141.6 26.4C140.9 28.5 140.1 30.6 139.1 32.8Z" fill="#028984"/>
<path d="M178.6 99C178.6 103.9 178.6 108.8 178.6 113.8C178.6 114.9 178.3 115.4 177.3 115.9C161.5 123.6 145.8 131.3 130.1 139.1C129.1 139.6 128.5 139.6 127.7 138.8C119.8 131.8 111.9 124.8 104 117.9C99.1 113.5 94 113 88.3 116.3C85.1 118.2 81.9 120.1 78.7 122C76.2 123.4 73.9 123 72.7 120.9C71.4 118.7 72.1 116 74.6 114.8C80 112.1 85.4 109.4 90.9 106.8C94.2 105.2 97.5 105.2 101 106.2C106.2 107.7 111.4 109.2 116.6 110.6C120 111.6 123.2 111.5 126.5 109.7C143.3 100.8 160.3 92.2 177.1 83.4C178.7 82.6 178.8 83 178.8 84.4C178.6 89.3 178.6 94.1 178.6 99Z" fill="#F7F7F8"/>
<path d="M86 102.3C85.7 102.9 85.1 103 84.5 103.3C80.1 105.5 75.6 107.6 71.2 109.9C67.3 112 65.4 115.9 66.2 120.5C66.9 124.6 69.5 127.3 73.6 128.4C76.2 129.1 78.8 128.6 81.2 127.2C84.5 125.3 87.7 123.4 91 121.4C94.6 119.3 97 119.5 100 122.2C107.8 129.1 115.5 135.9 123.3 142.8C124.4 143.8 125.4 144.8 125.1 146.4C124.6 148.9 121.6 149.9 119.3 148.1C116.5 145.9 113.7 143.5 110.9 141.3C108.7 139.5 106.6 137.8 104.4 136C103.7 135.4 103.3 135.1 102.6 136C101.7 137.2 100 138.4 100 139.6C100 140.5 102 141.5 103.1 142.5C106.8 145.6 110.6 148.7 114.4 151.7C116.4 153.4 116.8 155 115.6 156.5C114.4 158.1 112.1 158.2 110.2 156.6C105.4 152.7 100.6 148.8 95.9 144.9C94.9 144.1 94.4 143.9 93.4 145C90.7 148.3 90.7 148.2 93.9 150.8C97.8 153.9 101.6 157.1 105.4 160.3C106.2 160.9 107 161.6 107.2 162.6C107.4 163.8 107.2 164.8 106.2 165.6C105 166.6 103.5 166.6 102.4 165.9C99.3 164 96.4 161.8 94.1 159C92.3 156.8 90.3 155.3 87.6 154.9C86.9 154.8 86.6 154.6 86.5 153.9C85.8 149.8 83.3 147.2 79.2 146.3C78.2 146.1 77.7 145.8 77.6 144.7C77.1 141.2 74.1 138.2 70.6 137.6C69.4 137.4 68.9 137.1 68.7 135.8C67.5 129.2 59.3 126.3 54.1 130.6C51.9 132.4 49.9 134.4 48 136.5C47.4 137.2 47 137.2 46.3 136.8C43.9 135.3 41.5 133.9 39.1 132.6C38.4 132.2 38.2 131.9 38.5 131.1C41 122.6 43.4 114.2 45.9 105.7C46.1 104.9 46.6 104.6 47.3 104.4C54.7 102.9 62 100.9 69.5 99.8C74.9 99 80 100.2 85.1 101.9C85.4 102.1 85.7 102.2 86 102.3Z" fill="#F7F7F8"/>
<path d="M107.5 57C107.9 61.3 106.8 65.8 102.9 69.4C102.3 69.9 101.8 70.5 101.1 70.8C98.9 71.7 98.3 73.4001 98.6 75.6001C98.7 76.4001 98.6 77.2001 98.6 78.1001C98.6 81.7001 98.6 81.7 102.2 82.5C106.5 83.5 110.7 84.6001 115 85.7001C119.7 86.9001 122.2 89.9001 122.3 94.7001C122.4 97.8001 122.3 100.9 122.3 104C122.3 105.2 121.9 105.5 120.7 105.5C118.7 105.5 116.9 104.7 115 104.2C109.8 102.9 104.7 100.9 99.3 100.1C94.9 99.4001 90.8 97.9 86.6 96.5C79.3 94.1 71.9 93.2 64.3 94.9C62.8 95.2 62.9 94.7001 63 93.6001C63.6 89.5001 65.9 86.8 70.1 85.8C75.2 84.5 80.2 83.2 85.3 82C86.3 81.8 86.7 81.4 86.6 80.4C86.5 78.2 86.5 75.9001 86.6 73.7001C86.6 72.7001 86.2 72.2 85.4 71.8C80.2 68.8 77.6 64.2 77.7 58.3C77.8 55.2 77.4 52 78.4 48.9C80.1 43.7 85.1 39.6 90.3 39C97.3 38.1 102.6 41.9 105.1 46.3C107.2 49.3 107.5 51 107.5 57Z" fill="#F7F7F8"/>
<path d="M160.8 85.2C149.7 90.9 139.1 96.4 128.1 102.1C128.1 98.6 128.3 95.5 128.1 92.5C127.9 89.3 126.4 86.6 124.1 84.1C127.3 83.3 130.2 82.5 133.1 81.9C134.1 81.7 134.3 81.2 134.3 80.4C134.3 78.1 134.3 75.8 134.3 73.5C134.3 72.7 134 72.3 133.3 71.9C127.8 68.8 125.2 64.1 125.4 57.8C125.5 54.8 125.1 51.9 126.1 48.9C127.8 43.7 132.7 39.5 137.9 38.9C144.9 38 150.2 41.7 152.9 46.2C155.3 50.3 155.1 54.7 155 59.2C154.9 64.7 152.3 68.9 147.4 71.7C146.4 72.3 146.1 72.9 146.2 73.9C146.3 76.1 146.3 78.2 146.2 80.4C146.2 81.3 146.4 81.7 147.4 81.9C151.7 82.8 156 84 160.8 85.2Z" fill="#F7F7F8"/>
<path d="M61.5 84C59.3 86.5 57.8 89.2 57.5 92.4C57.5 92.6 57.4 92.9 57.4 93.1C57.1 96.4 57.1 96.4 53.8 97.1C52 97.5 50.2 97.9001 48.4 98.2001C48 97.9001 48.3 97.5001 48.4 97.2001C48.7 92.3001 48.7 92.3 44.4 89.8C40.7 87.6 36.9 85.5001 32.9 83.2001C34.9 82.7001 36.7 82.1 38.4 81.8C39.3 81.6 39.5 81.2 39.5 80.4C39.5 78.1 39.5 75.7 39.5 73.4C39.5 72.6 39.2 72.2 38.5 71.8C33 68.7 30.5 64 30.7 57.8C30.8 54.7 30.5 51.6 31.5 48.6C33.2 43.6 38.2 39.5 43.3 38.8C50.3 37.9 55.6 41.7 58.2 46.1C59.6 48.6 60.4 51.3 60.3 54.1C60.3 56.4 60.5 58.8001 60.1 61.1C59.4 65.8 56.8 69.3 52.6 71.6C51.7 72.1 51.4 72.7001 51.4 73.7001C51.5 75.9001 51.5 78.2 51.4 80.4C51.4 81.2 51.6 81.6 52.6 81.8C55.4 82.5 58.3 83.2 61.5 84Z" fill="#F7F7F8"/>
<path d="M72.1 55.6C71.8 61.6 72.9 66.9 76.7 71.6C77.8 72.9 78.9 74.1 80.3 75C80.8 75.4 81.1 75.8 81 76.5C81 77.3 80.3 77.2 79.8 77.3C76.5 78.1 73.2 78.9 69.9 79.7C69.4 79.8 68.9 79.9 68.3 79.7C65 78.8 61.6 78 58.3 77.2C57.1 76.9 56.7 75.9 57.7 75.2C65.1 69.8 66.6 62.1 66.1 53.8C65.9 50.9 65.5 48 64.2 45.3C63.9 44.7 63.9 44.2 64.3 43.5C70.2 33.8 78.7 28 90.3 27.2C103.7 26.3 113.8 31.9 121 43C121.6 43.9 121.3 44.6 121.1 45.4C118.6 53.7 118.2 61.8 122.7 69.6C123.9 71.7 125.5 73.4 127.5 74.8C128.1 75.2 128.4 75.6 128.4 76.4C128.3 77.3 127.5 77.1 127.1 77.2C123.9 78 120.8 78.8 117.6 79.6C116.9 79.8 116.4 79.8 115.7 79.6C112.5 78.8 109.2 78 106 77.2C105.6 77.1 104.8 77.3 104.7 76.5C104.6 75.9 104.8 75.4 105.3 75C111.3 70.5 113.6 64.3 113.6 57C113.6 51.6 113 46.5 109.9 41.9C104.8 34.4 96 31.1 87.3 33.4C78.8 35.6 72.7 43.1 72.1 52.1C72 53.5 72.1 54.6 72.1 55.6Z" fill="#F7F7F8"/>
<path d="M135.1 27.1001C135 27.3001 134.9 27.6001 134.7 28.0001C134.2 29.1001 133.6 30.2001 133.3 31.4001C132.6 33.6001 131.4 35.2001 129.2 36.1001C128.2 36.5001 127.3 37.3001 126.5 38.1001C125.6 39.0001 125.1 38.8 124.4 37.8C120.2 31.7 114.7 27.2001 107.8 24.4001C96 19.6001 84.4 20.4001 73.3 26.6001C68.3 29.4001 64.2 33.2001 61 37.9001C60.3 38.9001 59.8 39.2001 58.9 38.1001C58.3 37.4001 57.6 36.8001 56.8 36.5001C53.7 35.4001 52.6 32.8001 51.5 30.1001C50.2 26.7001 50.1 26.8 52.6 24.3C54.5 22.4 56.5 20.5001 58.4 18.6001C59.2 17.8001 59.8 17.6 60.8 18.3C62.7 19.7 64.8 20.8001 66.8 22.2001C67.6 22.7001 68.2 22.8 69 22.3C73.2 19.7 77.7 17.8001 82.6 16.7001C83.9 16.4001 84.3 15.8001 84.5 14.6001C84.9 12.4001 85.4 10.1001 85.9 7.90005C86.1 7.20005 86.3 6.70007 87.3 6.70007C90.9 6.80007 94.5 6.80007 98.1 6.70007C99.2 6.70007 99.4 7.20006 99.5 8.00006C100 10.4001 100.5 12.7001 101 15.0001C101.2 15.8001 101.5 16.2001 102.4 16.5001C107.4 17.6001 112.1 19.5 116.5 22.3C117.3 22.8 117.9 22.7001 118.6 22.2001C120.7 20.8001 122.8 19.5001 124.9 18.2001C125.5 17.8001 125.9 17.6001 126.6 18.2001C129.3 20.9001 132 23.5001 134.7 26.2001C134.9 26.3001 135.2 26.5001 135.1 27.1001Z" fill="#F7F7F8"/>
<path d="M6.90005 101.6C6.90005 93.9 6.90005 86.1 6.90005 78.4C6.90005 76.3 7.90005 75.8 9.90005 76.9C12.9001 78.6 15.9001 80.3 18.8001 82C22.3001 84 25.8001 86 29.3001 88C30.0001 88.4 30.3 88.6 30.1 89.6C26.7 103 23.3001 116.3 19.9001 129.7C19.7001 130.5 19.4001 130.8 18.4001 130.4C15.0001 129.2 11.5 128.1 8.10005 127.1C7.00005 126.8 6.80005 126.2 6.80005 125.2C6.90005 117.3 6.90005 109.4 6.90005 101.6Z" fill="#F7F7F8"/>
<path d="M42.5 96.2001C41.8 98.6001 41.1 101 40.4 103.4C37.5 113.3 34.6 123.1 31.8 133C31.5 134.2 31 134.7 29.8 134.1C28.4 133.4 26.1 133.6 25.6 132.3C25.1 131.2 26.1 129.4 26.5 128C29.5 116.3 32.5 104.7 35.4 93C35.7 91.6 36.1 91.8 37.1 92.3C38.6 93.2 40.2 94.1 41.7 95C42.1 95.3 42.6 95.5001 42.5 96.2001Z" fill="#F7F7F8"/>
<path d="M81.2 172.2C78.7 172.2 77.1 169.4 78.5 167.5C80.2 165.1 82.5 163 84.9 161.2C86.2 160.2 87.7 160.6 88.8 161.7C89.9 162.8 90.3 164.3 89.3 165.5C87.4 167.9 85.2 170.1 82.8 171.9C82.3 172.2 81.8 172.1 81.2 172.2Z" fill="#F6F7F7"/>
<path d="M63.1 137.7C63.2 138.7 62.7 139.5 62 140.2C60.4 141.8 58.8 143.4 57.2 144.9C55.5 146.4 53.7 146.5 52.3 145.1C51 143.8 51 141.9 52.6 140.3C54.2 138.7 55.9 137 57.5 135.5C58.5 134.5 59.8 134.2 61.1 134.9C62.4 135.3 63.1 136.3 63.1 137.7Z" fill="#F7F7F7"/>
<path d="M68.6 143.3C70.1 143.3 71 143.9 71.6 145C72.2 146.1 72.2 147.2 71.5 148.1C69.7 150.3 67.6 152.4 65.3 154.2C64 155.2 62.5 155 61.3 153.9C60.1 152.8 59.8 151.3 60.8 150C62.6 147.7 64.8 145.7 67.1 143.8C67.5 143.3 68.2 143.3 68.6 143.3Z" fill="#F7F7F7"/>
<path d="M72.5 163.4C71.1 163.4 70.1 162.8 69.5 161.7C68.9 160.6 68.9 159.4 69.7 158.4C71.5 156.2 73.5 154.2 75.8 152.5C77 151.5 78.8 151.8 79.9 152.8C81 153.9 81.5 155.4 80.5 156.6C78.6 159 76.4 161.1 74 163C73.5 163.4 72.9 163.3 72.5 163.4Z" fill="#F7F7F7"/>
<path d="M95.4 175.1C93.5 175.2 92.4 173.8 91.2 172.8C90.7 172.4 91.2 172.1 91.5 171.8C92.6 170.7 93.8 169.6 94.5 168.2C94.8 167.7 95.1 167.7 95.5 168C96.3 168.6 97 169.3 97.8 170C98.8 171 99 172.2 98.4 173.4C97.8 174.6 96.7 175.1 95.4 175.1Z" fill="#F6F6F7"/>
</svg>
