<svg width="100" height="157" viewBox="0 0 159 157" fill="none" xmlns="http://www.w3.org/2000/svg">
<path d="M17 101.3C21.1 99.3 24.9 99.4 28.4 102.1C29.1 102.6 29.4 102 29.8 101.7C33.9 99.1 39 99.5 42.4 102.7C46.3 106.4 46.6 112.5 42.8 116.5C39.8 119.7 36.6 122.8 33.4 125.9C30.8 128.4 27 128.4 24.4 125.9C21.1 122.8 18 119.6 14.9 116.4C13.1 114.5 12.3 112.2 12.4 109.6C12.5 104.5 12.5 99.5 12.5 94.4C12.5 92.1 11.1 90.4 9 90.4C6.9 90.4 5.39999 92 5.39999 94.5C5.39999 97.5 5.39999 100.5 5.39999 103.5C5.39999 105.4 4.5 106.5 3 106.4C1.6 106.4 0.799988 105.3 0.799988 103.5C0.799988 100.4 0.799988 97.2 0.799988 94.1C0.799988 90.7 2.4 88.1 5.5 86.7C6.5 86.2 6.60001 85.7 6.60001 84.8C6.60001 75.4 6.7 65.9 6.5 56.5C6.4 50.4 12.2 46 18 48.7C19 49.1 19 48.5 19.3 48C21.3 45.2 24.1 44.1 27.5 44.7C30.7 45.3 32.8 47.3 33.7 50.4C33.9 51.3 34 52.2 34.1 53.2C36.1 52.5 38.2 52.3 40.2 53C41.7 53.5 42.3 54.6 41.9 55.9C41.5 57.2 40.4 57.7 38.8 57.4C35.7 56.6 33.9 58 33.9 61.1C33.9 69.8 33.9 78.6 33.9 87.3C33.9 87.8 33.9 88.2 33.9 88.7C33.9 90.5 33 91.5 31.6 91.5C30.2 91.5 29.3 90.4 29.3 88.6C29.3 77.1 29.3 65.6 29.3 54C29.3 53.4 29.3 52.8 29.2 52.2C29 50.4 27.8 49.2 26 49.1C24.2 49 22.7 50.2 22.4 52C22.3 52.5 22.3 53.1 22.3 53.7C22.3 65.2 22.3 76.7 22.3 88.3C22.3 88.8 22.3 89.3 22.2 89.8C21.9 90.9 21.2 91.4 20.1 91.5C19.1 91.6 18.3 91.1 17.9 90.1C17.6 89.5 17.7 88.8 17.7 88.2C17.7 77.6 17.7 67 17.7 56.4C17.7 54.3 16.8 53 15.1 52.6C12.8 52.1 10.9 53.7 10.9 56.2C10.9 60.8 10.9 65.4 10.9 70.1C10.9 75.1 10.9 80 10.9 85C10.9 85.9 11.1 86.4 12 86.8C15.1 88.2 16.7 90.7 16.8 94.1C17 96.3 17 98.7 17 101.3Z" fill="#028984"/>
<path d="M135.3 53C140.4 51.7 143 52.7 145.8 56.9C146.1 57.4 146.4 57.4 146.9 57.2C152.3 54.8 158.2 58.9 158.2 65.3C158 83.6 158.1 101.9 158.1 120.3C158.1 125.9 156.2 130.7 152.3 134.7C151.7 135.3 151.6 135.9 151.6 136.7C151.6 142 151.6 147.4 151.6 152.7C151.6 153.3 151.6 153.8 151.5 154.4C151.2 155.7 150.4 156.3 149.1 156.2C147.9 156.1 147.1 155.4 147.1 154.1C147.1 147.5 147.1 140.9 147.1 134.3C147.1 133.5 147.5 133 148.1 132.5C152 129.1 153.7 124.7 153.7 119.5C153.6 101.6 153.7 83.7 153.7 65.7C153.7 65.5 153.7 65.3 153.7 65.1C153.7 62.6 152.4 61.1 150.3 61C148.3 61 146.9 62.5 146.9 65C146.9 72.7 146.9 80.3 146.9 88C146.9 88.5 146.9 88.9 146.8 89.4C146.5 90.6 145.7 91.4 144.5 91.4C143.3 91.4 142.3 90.5 142.3 89.1C142.3 87.3 142.3 85.5 142.3 83.8C142.3 76.2 142.3 68.6 142.3 61C142.3 58.5 140.9 57 138.7 57.1C137.1 57.2 135.8 58.3 135.6 59.9C135.5 60.5 135.5 61.1 135.5 61.7C135.5 70.5 135.5 79.3 135.5 88C135.5 88.6 135.5 89.2 135.3 89.8C135 90.9 134.2 91.4 133.1 91.4C132 91.4 131.1 90.8 130.9 89.6C130.8 89.1 130.8 88.5 130.8 87.9C130.8 76.7 130.8 65.5 130.8 54.2C130.8 53.7 130.8 53.3 130.8 52.8C130.7 50.4 129.4 49 127.4 48.9C125.3 48.9 123.9 50.4 123.9 52.9C123.9 64.4 123.9 75.9 123.9 87.5C123.9 88 123.9 88.5 123.9 89C123.8 90.3 122.9 91.3 121.7 91.3C120.4 91.3 119.6 90.6 119.4 89.3C119.3 88.8 119.3 88.3 119.3 87.8C119.3 77.4 119.3 67 119.3 56.6C119.3 55.1 119 53.8 117.8 52.8C117 52.2 116.8 51.3 117.2 50.3C117.6 49.4 118.3 48.9 119.3 48.8C119.8 48.8 120.1 48.8 120.4 48.3C122.5 44.8 126.2 43.8 129.3 44.6C132.1 45.3 135.2 47.9 135.3 52.5C135.2 52.7 135.2 52.8 135.3 53Z" fill="#028984"/>
<path d="M64.8 68.5C66.4 67.8 67.7 67.1 69.2 66.8C72.5 66.2 75.5 66.9 78.2 68.8C79 69.4 79.5 69.5 80.4 68.9C85.5 65.3 92.1 66 96 70.6C99.8 75 99.5 81.6 95.3 85.9C91.9 89.4 88.3 92.9 84.8 96.4C81.6 99.5 77.1 99.4 74 96.3C70.6 92.9 67.2 89.5 63.8 86.2C61 83.4 60 80.1 60.2 76.1C60.5 70.3 60.4 64.5 60.3 58.8C60.3 56.2 58.1 54.4 55.6 54.4C53.1 54.5 51.1 56.5 51.1 59.2C51.1 65.8 51.1 72.5 51.1 79.1C51.1 82.6 50.9 86.2 51.3 89.7C52 95.4 54.7 99.9 59.3 103.3C60.4 104.1 61.6 105 62.8 105.8C63.6 106.4 64 107.1 64 108.1C64 123.3 64 138.4 64 153.6C64 155.2 63.2 156.1 61.8 156.1C60.4 156.1 59.5 155.2 59.4 153.5C59.4 151.3 59.4 149 59.4 146.8C59.4 134.6 59.4 122.4 59.4 110.3C59.4 109.3 59.1 108.7 58.2 108.1C52.1 104.1 48.1 98.7 46.9 91.5C46.6 90 46.5 88.4 46.5 86.8C46.5 77.8 46.5 68.7 46.5 59.7C46.5 55.2 48.4 51.9 52.8 50.3C53.5 50 53.6 49.7 53.6 49C53.6 47 53.6 44.9 53.6 42.9C53.6 41.2 54.4 40.2 55.8 40.2C57.3 40.2 58.1 41.2 58.2 42.9C58.2 44.9 58.2 46.9 58.2 48.8C58.2 49.6 58.4 49.9 59.1 50.2C63 51.8 65 54.7 65.1 58.9C64.8 62.1 64.8 65.2 64.8 68.5Z" fill="#028984"/>
<path d="M85 11.1C86.4 10.6 87.6 10.1 89 10.1C92.9 9.90003 96.2 11.8 97.8 15.3C98.2 16.1 98.3 16.3 99.3 15.9C105.3 13.1 112 17.1 112.3 23.7C112.4 26 112.4 28.3 112.3 30.6C112.3 32.2 111.3 33.2 109.9 33.1C108.5 33.1 107.7 32.2 107.7 30.5C107.7 28.5 107.7 26.5 107.7 24.6C107.7 21.6 105.9 19.6 103.2 19.6C100.5 19.6 98.7 21.5 98.7 24.6C98.7 33.7 98.7 42.9 98.7 52C98.7 52.6 98.7 53.2 98.6 53.8C98.3 55 97.4 55.6 96.2 55.5C95.1 55.4 94.3 54.7 94.2 53.6C94.1 53.1 94.2 52.6 94.2 52.1C94.2 41.3 94.2 30.6 94.2 19.8C94.2 17.1 92.8 15.2 90.7 14.8C87.8 14.2 85.4 16.1 85.2 19.2C85.1 20.4 85.2 21.6 85.2 22.9C85.2 32.6 85.2 42.4 85.2 52.1C85.2 52.6 85.2 53.1 85.2 53.6C85.1 54.8 84.3 55.4 83.2 55.5C82.1 55.6 81.2 55 80.9 53.9C80.7 53.3 80.7 52.6 80.7 51.9C80.7 38 80.7 24.1 80.7 10.2C80.7 7.50003 79.4 5.70003 77.3 5.30003C74.4 4.70003 71.8 6.60003 71.7 9.60003C71.6 11.2 71.7 12.8 71.7 14.5C71.7 27 71.7 39.6 71.7 52.1C71.7 52.6 71.7 53.1 71.7 53.6C71.5 54.7 70.8 55.3 69.7 55.5C68.6 55.6 67.8 55.2 67.3 54.2C67 53.6 67 52.9 67 52.3C67 39.5 67 26.7 67 13.9C67 11.5 65.6 9.70003 63.4 9.30003C60.5 8.80003 58.1 10.8 58.1 13.7C58.1 19.6 58.1 25.6 58.1 31.5C58.1 31.9 58.1 32.3 58.1 32.7C58 34.1 57.1 35.1 55.8 35.1C54.5 35.1 53.5 34.1 53.5 32.6C53.5 31.4 53.5 30.3 53.5 29.1C53.5 24 53.5 18.8 53.5 13.7C53.5 6.80003 60.5 2.50003 66.7 5.60003C67.4 6.00003 67.8 6.10003 68.3 5.20003C70.4 1.60003 74.5 -0.0999773 78.4 0.900023C82.5 2.00002 85.1 5.30003 85.2 9.60003C85 10 85 10.5 85 11.1Z" fill="#028984"/>
<path d="M112.3 66.4C112.3 74.3 112.3 82.1 112.3 90C112.3 97.5 109.3 103.4 103 107.6C102.2 108.1 102 108.7 102 109.6C102 124 102 138.3 102 152.7C102 153.3 102 153.8 101.9 154.4C101.7 155.5 101 156.1 99.9 156.2C98.8 156.3 97.9 155.9 97.5 154.7C97.3 154.1 97.3 153.5 97.3 152.9C97.3 138.2 97.3 123.5 97.3 108.7C97.3 106.7 98 105.3 99.8 104.2C105.3 100.9 107.7 96 107.7 89.7C107.6 73.8 107.7 57.8 107.7 41.9C107.7 41.4 107.7 40.9 107.7 40.4C107.8 39.2 108.5 38.5 109.7 38.4C110.8 38.3 111.7 38.8 112.1 39.8C112.4 40.4 112.3 41 112.3 41.6C112.3 49.8 112.3 58.1 112.3 66.4Z" fill="#028984"/>
<path d="M122.3 100C125.4 100 127.3 100.5 129 101.8C129.6 102.3 130.1 102.4 130.8 101.9C135.4 98.9 140.9 99.6 144.3 103.6C147.6 107.5 147.2 113.2 143.5 117C140.6 119.9 137.7 122.9 134.7 125.7C132 128.4 128.1 128.5 125.3 125.9C122.1 122.8 118.9 119.7 115.8 116.4C112.9 113.3 112.5 109.6 114.2 105.8C116 101.9 119.2 100.1 122.3 100Z" fill="#028984"/>
<path d="M16.1 144.4C16.1 147.2 16.1 150.1 16.1 152.9C16.1 155.1 15.4 156.1 13.8 156.1C12.2 156.1 11.5 155 11.5 152.8C11.5 147.7 11.5 142.6 11.5 137.6C11.5 136.6 11.3 135.9 10.4 135.3C3.7 130.8 0.500014 124.6 0.700014 116.6C0.700014 115.7 0.700014 114.8 0.700014 113.9C0.800014 112.5 1.6 111.5 2.9 111.5C4.3 111.5 5.19999 112.4 5.29999 113.9C5.39999 116.4 5.10001 119 5.70001 121.5C6.70001 125.7 9.00001 129.1 12.7 131.3C15.4 132.9 16.5 134.9 16.2 138C15.9 140.1 16.1 142.3 16.1 144.4Z" fill="#028984"/>
<path d="M45.8 144.1C45.8 141.1 45.8 138 45.8 135C45.8 133.9 46.1 133 47 132.4C47.2 132.3 47.3 132.1 47.5 132C49.4 130.5 50.2 128.6 50.1 126.1C49.9 121.9 50 117.6 50 113.3C50 112.3 50.1 111.5 50.9 110.8C51.6 110.2 52.5 110.2 53.2 110.5C54.1 110.9 54.6 111.6 54.6 112.7C54.6 118.3 54.6 123.9 54.6 129.4C54.6 131.4 53.1 132.7 51.9 134C50.8 135.1 50.4 136.2 50.5 137.7C50.6 142.6 50.5 147.5 50.5 152.5C50.5 152.9 50.5 153.3 50.5 153.7C50.4 155.3 49.6 156.2 48.2 156.2C46.8 156.2 45.9 155.3 45.9 153.7C45.7 150.5 45.8 147.3 45.8 144.1Z" fill="#028984"/>
<path d="M117.3 144.6C117.3 147.5 117.3 150.5 117.3 153.4C117.3 155.2 116.5 156.1 115.1 156.1C113.6 156.1 112.7 155.2 112.7 153.4C112.7 148.1 112.7 142.8 112.7 137.4C112.7 136.5 112.5 135.9 111.7 135.4C110.1 134.4 108.7 133.3 107.5 131.9C106.5 130.8 106.4 129.4 107.3 128.5C108.3 127.5 109.7 127.5 110.8 128.7C112.3 130.2 114 131.4 115.7 132.6C116.9 133.4 117.4 134.3 117.4 135.8C117.2 138.7 117.3 141.7 117.3 144.6Z" fill="#028984"/>
<path d="M22.7 104.5C24 104.4 25.2 105.3 26.5 106.2C28.6 107.7 29.4 107.7 31.4 106.2C33.1 104.9 34.9 104.1 37.1 104.7C40.9 105.8 42.3 110.3 39.7 113.2C36.8 116.4 33.6 119.4 30.5 122.4C29.6 123.3 28.4 123.3 27.5 122.4C24.4 119.3 21.2 116.3 18.2 113.1C16.7 111.5 16.6 109.4 17.6 107.4C18.4 105.5 20.1 104.5 22.7 104.5Z" fill="#F7F7F8"/>
<path d="M71.3 71.1001C72.8 71.2001 74.2 71.5 75.2 72.3C78.7 75.1 79.5 75.3 83.4 72.3C86.1 70.2 89.7 70.7001 92.1 73.1001C94.5 75.5001 94.9 79.5001 92.5 82.1001C88.9 85.9001 85.1 89.6001 81.4 93.2001C80.2 94.4001 78.5 94.3001 77.3 93.1C73.7 89.5001 70 86 66.5 82.3C64.5 80.2 64.1 77.6 65.4 75C66.5 72.4 68.7 71.2001 71.3 71.1001Z" fill="#F7F7F8"/>
<path d="M118 110.2C118 107.7 118.9 106.1 120.8 105.2C122.7 104.2 124.7 104.1 126.3 105.5C128.9 107.7 131 107.8 133.7 105.5C135.8 103.7 138.9 104.3 140.7 106.3C142.5 108.3 142.5 111.4 140.5 113.5C138.1 116 135.5 118.5 133 121C130.1 123.9 129.9 123.9 127.1 121C124.7 118.6 122.3 116.2 119.8 113.8C118.7 112.7 118 111.4 118 110.2Z" fill="#F7F7F8"/>
</svg>
