<svg width="100" height="156" viewBox="0 0 161 156" fill="none" xmlns="http://www.w3.org/2000/svg">
<path d="M121.2 129C122.9 129 124.6 128.9 126.3 129C129.2 129.3 131.2 130.8 132.3 133.3C133 134.9 133.5 136.6 134.2 138.1C134.8 139.3 134.6 139.8 133.3 140.3C122.7 144.2 112.2 148.1 101.7 152.1C98.5 153.3 95.3 154.5 92.1 155.7C91.2 156.1 90.7 155.9 90.4 155C89.7 153.2 88.9 151.5 88.2 149.6C87 146.5 87.6 143.7 90.2 141.4C92 139.8 93.8 138.1 95.6 136.5C96.2 135.9 96.5 135.5 96.2 134.6C94.8 130.7 93.4 126.8 92.1 122.8C91.9 122.1 91.5 121.8 90.7 121.7C86.8 121.3 82.9 120.8 79 120.3C78.4 120.2 78 120.5 77.5 120.7C53.1 130.3 28.7 139.9 4.39999 149.6C2.89999 150.2 2.29999 150.1 1.69999 148.6C0.499988 145.7 0.399991 145.8 3.49999 144.6C18.1 138.9 32.6 133.1 47.2 127.4C48.3 127 48.3 126.6 48 125.7C45.2 117.9 42.5 110.1 39.8 102.3C39.5 101.4 39.2 101.2 38.2 101.6C26.7 106 15.1 110.4 3.59999 114.8C2.49999 115.2 2.09999 115.1 1.79999 114C1.49999 112.8 0.199994 111.5 0.799994 110.5C1.29999 109.7 2.99999 109.4 4.09999 109C24 101.3 43.9 93.6 63.8 85.9C64.8 85.5 65.2 85.1 65.3 84.1C65.7 81.8 66.3 79.6 66.8 77.3C67.2 75.2 68.1 73.5 70 72.2C70.5 71.9 70.6 71.6 70.4 71.1C70.4 71.1 70.4 71 70.3 71C69.7 69 68.8 67.7 66.1 67.7C62.4 67.7 58.7 67.3 55.1 66.4C52.2 65.7 49.2 64.8 46.8 63.1C43.7 61 40.4 60.6 36.8 60.3C34.3 60.1 31.7 60 29.2 59.4C23.2 58.1 18.8 53.6 17.8 47.9C16.9 42.5 19.8 36.7 25.1 33.8C26 33.3 26.1 32.9 25.7 32C25.2 30.8 24.7 29.6 24.5 28.4C23.7 24.6 25.9 21.3 30.1 19.8C38.6 16.9 47 14 55.5 11.1C65.2 7.80001 75 4.60001 84.6 1.00001C89.4 -0.799994 94.5 1.20002 95.8 6.20002C96.1 7.40002 96.6 7.49999 97.9 7.29999C103.5 6.49999 108.8 9.20001 111.7 14.1C114.5 18.9 114.1 24.5 110.6 28.7C108.3 31.4 106 34.1 103.6 36.8C102.9 37.5 102.6 38.3 102.4 39.2C101.5 44.7 99 49.5 95.2 53.7C93.5 55.6 91.8 57.6 90 59.5C89.1 60.4 88.9 61.2 89.5 62.4C90.6 64.6 90.5 64.7 92.9 63.7C96 62.4 98.9 61 102.1 59.9C105.5 58.7 110.5 59.8 112.3 64.5C114.4 69.8 116.4 75.1 118.5 80.4C121.4 87.7 124.2 95 127.1 102.4C128.8 106.8 127.3 110.5 123 112.6C119.7 114.2 116.3 115.8 112.9 117.4C112 117.8 111.8 118.2 112.2 119.1C113.5 122 114.8 124.8 116 127.7C116.4 128.6 116.8 128.8 117.8 128.8C119 128.7 120.2 128.8 121.5 128.8C121.2 128.9 121.2 129 121.2 129Z" fill="#028984"/>
<path d="M160.2 80C160.2 80.2 160.2 80.4 160.2 80.6C160.4 82 160.1 82.5 158.3 82.6C152.6 83 147.6 87.9 147.1 93.3C147.1 93.7 147.1 94.0001 147 94.4001C146.8 95.4001 147.5 97.0001 146.6 97.4001C145.3 97.9001 143.7 97.6 142.2 97.6C141.3 97.6 141.7 96.8001 141.7 96.4001C141.8 93.1001 141.1 90 138.9 87.3C136.5 84.5 133.5 82.8 129.7 82.6C128.7 82.5 128.4 82.2 128.5 81.3C128.6 80.1 128.2 78.8001 128.6 77.9001C129.1 76.9001 130.8 77.4 131.9 77.1C137.7 75.7 141.7 70.7 141.7 64.8C141.7 62.4 141.7 62.4 144.3 62.4C146.9 62.4 146.9 62.4 147 64.8C147.1 72.8 153.5 77.4 159.5 77.5C160.1 77.5 160.3 77.7 160.3 78.3C160.2 78.8 160.2 79.4 160.2 80Z" fill="#028984"/>
<path d="M33.2 80C33.1 80.7 33.5 81.6 33 82.2C32.5 82.8 31.5 82.4 30.7 82.6C24.5 83.7 20.1 88.6 19.9 94.6C19.9 95.3 19.8 95.9 19.9 96.6C20 97.3 19.7 97.6 18.9 97.6C17.6 97.5 16.1 98 15.1 97.5C13.9 96.9 14.7 95.3 14.6 94.2C14 87.1 7.89998 82.7 2.29998 82.6C1.49998 82.6 1.19998 82.3 1.29998 81.6C1.29998 81.5 1.29998 81.3 1.29998 81.1C1.29998 80 0.899977 78.7 1.39998 77.8C1.89998 76.9 3.49997 77.3 4.59997 77.1C10.5 75.7 14.5 70.7 14.6 64.4C14.6 62.3 14.6 62.3 16.9 62.3C19.7 62.3 19.7 62.3 19.8 65C20 71.6 25.1 76.8 32 77.3C33 77.4 33.2 77.7 33.1 78.5C33.2 79 33.2 79.4 33.2 80Z" fill="#028984"/>
<path d="M149.7 29.5C149.7 30 149.7 30.5 149.7 31C149.8 31.8 149.4 32 148.6 32.1C141.6 32.7 136.6 37.7 136.4 44.5C136.3 47.1 136.3 47.1 133.5 47.1C133.2 47.1 133 47.1 132.7 47.1C131.5 47.3 131.1 46.8 131.1 45.6C131.3 40.5 129.3 36.4 124.7 33.7C123 32.7 121.1 32 119 32C118.1 32 117.8 31.7 117.8 30.9C117.9 29.7 117.4 28.3 118 27.3C118.5 26.3 120.2 26.8 121.3 26.5C127.1 25.1 131.1 20.1 131.2 14C131.2 11.7 131.2 11.7 133.6 11.7C136.3 11.7 136.3 11.7 136.4 14.3C136.6 21.2 141.6 26.3 148.7 26.8C149.4 26.9 149.8 27 149.7 27.7C149.6 28.4 149.7 28.9 149.7 29.5Z" fill="#028984"/>
<path d="M97.9 32.6C97.8 39.6 95.6 45.6 91 50.7C88.5 53.5 86 56.3 83.4 59.1C82.8 59.8 82.7 60.3 83 61.1C83.6 62.4 84 63.9 84.7 65.2C85 65.9 84.8 66.2001 84.1 66.4001C81.5 67.4001 78.9 68.4 76.3 69.5C75.6 69.8 75.3 69.7 75 69C74.5 67.6 73.8 66.2 73.3 64.8C72.9 63.8 72.3 63.5001 71.2 63.4001C66.6 63.0001 62 63 57.4 62C47.4 59.8 40.4 54.1 36.6 45C34.4 39.8 32.3 34.5 30.1 29.2C29.1 26.8 29.6 25.7 32.1 24.9C50.2 18.7 68.2 12.5 86.3 6.30002C88.8 5.40002 89.9 5.90004 90.7 8.20004C92.8 14.4 95.3 20.6 97 26.9C97.8 28.8 97.8 30.9 97.9 32.6Z" fill="#F7F7F8"/>
<path d="M97.9 117.2C92.8 116.6 87.7 115.9 82.6 115.5C80.4 115.3 79.8 114.4 79.2 112.6C76.5 104.5 73.6 96.5 70.8 88.5C70.5 87.6 70.4 86.7 70.6 85.7C71.2 83.3 71.6 80.9 72 78.6C72.2 77.3 72.9 76.3 74.3 75.8C83.6 72 93 68.2 102.3 64.4C105.2 63.2 106.2 63.6 107.3 66.5C107.7 67.5 108 68.5 108.5 69.4C109 70.4 108.6 70.6 107.7 70.9C104.2 72 100.7 73.1 97.1 74.2C96.1 74.5 95.9 74.8 96.3 75.7C96.8 76.9 96.7 78.6 97.7 79.1C98.6 79.5 100.1 78.6 101.3 78.2C104 77.4 106.7 76.5 109.4 75.6C110.2 75.3 110.6 75.4 110.9 76.3C111.6 78.4 112.5 80.4 113.3 82.4C113.6 83.1 113.6 83.5 112.6 83.8C109.2 84.8 105.8 86 102.4 87.1C101.5 87.4 101.1 87.7 101.6 88.6C102.2 89.7 102 91.6 103 92C103.9 92.4 105.4 91.4 106.7 91.1C109.3 90.3 111.9 89.5 114.5 88.6C115.4 88.3 115.7 88.5 115.9 89.3C116.6 91.3 117.4 93.3 118.2 95.2C118.6 96.2 118.3 96.5 117.4 96.8C114.1 97.8 110.9 98.8 107.6 99.8C106.7 100 106.5 100.3 106.8 101.2C108 105 108 105 111.8 103.7C114.3 102.9 116.8 102.1 119.3 101.2C120.2 100.9 120.6 101 120.9 101.9C122.6 106 122.5 106.2 118.4 108.1C112.4 110.9 106.3 113.8 100.3 116.6C99.6 117 98.8 117.3 97.9 117.2Z" fill="#F7F7F8"/>
<path d="M74.7 115.9C74.7 116.5 74.1 116.5 73.8 116.6C67.3 119.2 60.8 121.8 54.4 124.4C53.7 124.7 53.4 124.7 53.1 123.8C50.4 115.8 47.5 107.8 44.7 99.9C44.4 99.1 44.7 98.8 45.4 98.6C46.7 98.1 48.1 97.7 49.4 97.1C50.3 96.7 50.6 96.9 50.9 97.8C52.8 103.4 54.8 109 56.6 114.6C56.9 115.6 57.3 116.1 58.4 115.5C59.5 115 61.4 115.1 61.8 114.2C62.2 113.3 61.2 112 60.8 110.8C59.1 105.8 57.3 100.7 55.5 95.7C55.2 94.8 55.3 94.5 56.2 94.2C59.1 93.2 61.9 92 64.7 90.9C65.3 90.7 65.7 90.5 66 91.3C68.8 99.3 71.6 107.4 74.4 115.4C74.5 115.7 74.6 115.8 74.7 115.9Z" fill="#F7F7F8"/>
<path d="M92.9 147.1C92.9 146.2 93.3 145.5 94 144.8C96.6 142.4 99.3 140.1 101.9 137.7C102.3 137.3 102.8 137.1 103.4 136.9C106.6 135.9 109.8 134.9 113 133.9C114.3 133.5 115.6 133.7 116.9 133.6C119.3 133.6 121.7 133.6 124.1 133.6C124.9 133.6 125.7 133.7 126.3 134.2C127.8 135.4 127.6 136.6 125.9 137.3C115.7 141.2 105.6 145 95.4 148.9C93.7 149.6 92.9 149 92.9 147.1Z" fill="#F7F7F8"/>
<path d="M37.1 55.5C34.4 55.1 31.9 55.3 29.5 54.5C25.7 53.4 23.7 50.7 23.2 47.1C22.7 43.7 24.2 40.9 27.1 38.8C27.9 38.2 28.2 38.3 28.6 39.2C30.6 43.7 32.2 48.5 35.1 52.6C35.8 53.6 36.4 54.5 37.1 55.5Z" fill="#F7F7F8"/>
<path d="M103.1 29.8C102.4 23.5 99.9 18.3 98.2 12.7C101.4 11.9 104.7 13.2 106.7 15.8C108.7 18.4 108.9 22.2 107.1 24.8C105.9 26.4 104.6 27.9 103.1 29.8Z" fill="#F7F7F8"/>
<path d="M97.6 122.7C100.5 122.9 102.7 121.4 105 120.3C106.1 119.8 106.5 120 106.9 121C107.9 123.4 109 125.7 110.1 128.1C110.4 128.8 110.4 129.2 109.5 129.4C106.9 130.1 104.4 131 101.8 131.8C101.2 132 100.9 132 100.7 131.4C99.7 128.6 98.7 125.7 97.6 122.7Z" fill="#F7F7F8"/>
<path d="M144.4 86C142.8 83.4 140.7 81.5 138.1 79.9C140.7 78.3 142.7 76.4 144.4 73.9C146.1 76.4 148.1 78.4 150.7 79.9C149.4 80.7 148.2 81.6 147.1 82.6C146.1 83.6 145.2 84.6 144.4 86Z" fill="#F7F7F7"/>
<path d="M23.7 79.9C21 81.5 19 83.4 17.3 85.9C15.6 83.4 13.6 81.4 11 79.9C13.5 78.3 15.6 76.4 17.3 73.9C19 76.3 21 78.4 23.7 79.9Z" fill="#F7F7F7"/>
<path d="M133.8 23.4C134.7 24.8 135.6 25.9 136.7 26.9C137.7 27.9 138.9 28.7 140.1 29.5C137.6 31.1 135.5 32.9 133.8 35.5C132.1 33 130.1 31 127.5 29.5C130 27.9 132.1 26 133.8 23.4Z" fill="#F7F7F7"/>
<path d="M89.4 32.6C89.3 38.6 87.6 43.7 83.5 48C82.9 48.7 82.5 48.9 81.8 48.1C81 47.2 79.7 46.6 79.3 45.6C78.9 44.5 80.5 43.8 81.1 42.9C84.2 38.2 84.5 33.2 83.4 28C82.6 24.1 81.1 20.3 79 16.9C78.4 16 78.7 15.6 79.5 15.2C80.3 14.8 81.2 14.3 81.9 13.7C82.7 13 83.1 13.3 83.6 14.1C87.1 19.9 89.2 26.1 89.4 32.6Z" fill="#028984"/>
</svg>
