<svg width="100" height="156" viewBox="0 0 160 156" fill="none" xmlns="http://www.w3.org/2000/svg">
<path d="M31.1 127.1C37.4 130.4 41.2 135.2 42.1 141.5C42.7 145.5 42.3 149.6 42.3 153.6C42.3 154.9 41.1 155.6 39.3 155.6C30.5 155.6 21.7 155.6 12.9 155.6C9.60001 155.6 6.30001 155.6 3.00001 155.6C1.40001 155.6 0.200026 154.9 0.200026 153.5C0.200026 148.8 -0.499998 144 0.800002 139.3C2.3 133.9 5.90003 129.9 11.2 127.2C11.2 126.7 10.7 126.6 10.3 126.4C4.7 122.8 1.70003 117.9 1.70003 111.6C1.60003 101.9 1.70003 92.3 1.70003 82.6C1.70003 75.7 4.8 70.3 11.3 66.6C11.4 66.5 11.5 66.4 11.8 66.2C8.3 64.1 5.7 61.3 4.3 57.7C0.700002 48.6 6.8 38.6 17.3 36.5C18.5 36.3 18.9 35.9 18.9 34.7C18.8 30.9 18.9 27 18.9 23.2C18.9 21.3 19.7 20.4 21.3 20.4C23 20.4 23.9 21.4 23.9 23.3C23.9 27.2 23.9 31.2 23.9 35.1C23.9 35.9 24.2 36.2 25 36.4C32.6 38 37.4 42.3 39 49.2C40.5 56.2 37.7 61.8 31.3 65.9C31.2 66 31.1 66 31 66.1C30.9 66.5 31.3 66.6 31.6 66.7C36.9 69.8 40.1 74.2 40.7 80C40.8 81.2 41.6 81 42.4 81C54.8 81 67.2 81 79.5 81C80.6 81 81.6 81 82.9 81C82.2 79.3 81.3 77.7 81 76C79.5 68.3 82.5 62.2 89.1 57.5C99.7 50 116.1 51.7 124.1 61C129.1 66.8 130.1 73.2 126.8 80.1C126.7 80.4 126.5 80.6 126.3 81.1C129.1 81.1 131.8 81.1 134.4 81.1C135.1 81.1 135.4 80.8 135.4 80.1C135.4 79.7 135.4 79.4 135.4 79C135.4 54.9 135.4 30.8 135.4 6.69998C135.4 4.59998 135.4 4.59998 133.1 4.59998C114.1 4.59998 95 4.59998 76 4.59998C75.4 4.59998 74.9 4.59998 74.4 4.59998C74.2 4.99998 74.6 5.09998 74.7 5.19998C87.7 15.1 83.8 32.1 67.9 37.7C65.3 38.6 62.7 39.3 59.9 39.2C56.2 39 52.9 40.4 49.5 41.2C47.7 41.6 45.9 42.2 44 42.6C41.7 43.2 40.1 41.7 40.7 39.7C41.1 38.2 41.6 36.8 42.1 35.4C42.3 34.8 42.3 34.3 41.7 33.8C31.9 26.3 31.7 12.7 42.6 4.99997C42.6 4.99997 42.6 4.89998 42.7 4.69998C42.1 4.69998 41.6 4.69998 41.1 4.69998C35.8 4.69998 30.6 4.69998 25.3 4.69998C24.2 4.69998 23.7 4.99998 23.7 6.09998C23.8 7.89998 23.7 9.69998 23.7 11.6C23.7 13.3 22.7 14.4 21.2 14.4C19.7 14.4 18.7 13.4 18.7 11.6C18.7 9.49998 18.7 7.39996 18.7 5.39996C18.8 2.59996 21.2 0.399982 24.4 0.199982C24.8 0.199982 25.2 0.199982 25.6 0.199982C61.6 0.199982 97.6 0.199976 133.6 0.0999756C137.2 0.0999756 140.5 2.19996 140.5 6.39996C140.4 30.7 140.4 55.1 140.5 79.4C140.5 83.1 138 85.8 133.6 85.6C130.3 85.4 127 85.6 123.7 85.6C121.5 85.6 120.5 86.8 121.1 88.6C121.5 89.8 121.9 91 122.3 92.2C122.7 93.2 122.6 94.1 121.8 94.9C120.9 95.7 119.9 95.6 118.8 95.4C117.1 95 115.5 94.5 113.8 94C109.8 92.8 105.8 92 101.6 91.8C96.4 91.5 91.8 89.6 87.9 86.4C87.1 85.8 86.3 85.5 85.2 85.5C71 85.5 56.8 85.5 42.5 85.5C41.1 85.5 40.7 85.8 40.7 87.1C40.8 94.5 40.6 102 40.8 109.4C41.1 116.9 38.4 122.9 31.1 127.1Z" fill="#028984"/>
<path d="M69.7 127.1C57.6 119.9 57.9 107 65 100C72.8 92.3 85.6 92.1 93.6 99.5C101 106.3 102 119.7 89.5 127.2C93.2 129.1 96.2 131.7 98.2 135.2C99.7 137.7 100.5 140.4 100.6 143.2C100.7 146.5 100.7 149.9 100.6 153.2C100.6 154.8 99.6 155.7 97.7 155.7C85.5 155.7 73.3 155.7 61.1 155.7C59.5 155.7 58.4 155 58.3 153.6C58.3 149.2 57.7 144.7 58.7 140.3C60.3 134.4 64 130.1 69.7 127.1Z" fill="#028984"/>
<path d="M128 127.1C115.7 119.7 116.5 106.3 124.1 99.3999C132 92.1999 145.1 92.3999 152.6 99.9999C160.2 107.7 159.5 120.3 148 127.1C150.6 128.5 152.8 130.1 154.6 132.1C157.7 135.6 159.2 139.7 159.2 144.2C159.2 147 159.2 149.9 159.2 152.7C159.2 154.8 158.3 155.6 155.9 155.6C150.8 155.6 145.6 155.6 140.5 155.6C138.5 155.6 137.4 154.8 137.4 153.3C137.4 151.8 138.5 151 140.5 151C144.6 151 148.8 151 152.9 151C153.9 151 154.3 150.8 154.2 149.8C154 146.6 154.5 143.4 153.6 140.3C151.6 133.3 144.1 128.6 136.1 129.4C128.1 130.3 122 136.4 121.9 143.6C121.9 145.7 121.9 147.8 121.9 150C121.9 150.7 122.1 151 122.9 150.9C124.5 150.8 126.1 150.9 127.8 150.9C129.5 150.9 130.6 151.9 130.6 153.2C130.6 154.5 129.5 155.4 127.8 155.5C125.1 155.5 122.3 155.5 119.6 155.5C118.1 155.5 117 154.8 117 153.4C117 149.3 116.6 145.1 117.2 141C118.2 135.1 121.6 130.6 127.2 127.5C127.4 127.4 127.7 127.2 127.9 127.1C128 127.2 128 127.1 128 127.1Z" fill="#028984"/>
<path d="M116.4 89.9C113.8 89.2 111.5 88.6 109.3 87.9C106.7 87.1 104.1 87.6 101.5 87.3C93.9 86.3 87.4 81.4 86 74.8C84.8 68.8 87.5 64.1 92.8 60.7C101.9 54.7 115.8 57 121.4 65.2C125.5 71.3 124.2 78.6 117.8 83.2C115.5 84.9 114.9 86.4 116 88.7C116.1 89.1 116.2 89.4 116.4 89.9Z" fill="#F7F7F8"/>
<path d="M47.1 37.2C46.9 36.4 47.3 35.8 47.5 35.2C48.2 32.9 48.1 32.6 46.1 31.2C41.4 27.9 38.9 23.6 39.6 18.2C40.1 13.9 42.7 10.6 46.5 8.09997C53.5 3.59997 63.5 3.59997 70.5 8.19997C80.3 14.6 79.5 26.6999 69 32.2999C66.1 33.8999 62.9 34.9 59.5 34.7C56.1 34.6 53 35.6 49.9 36.4C49 36.6 48.1 36.9 47.1 37.2Z" fill="#F7F7F8"/>
<path d="M6.8 99.5999C6.8 93.3999 6.7 87.2999 6.8 81.1999C6.9 74.7999 13.2 69.0999 20.1 68.7999C28.7 68.2999 34.9 74.0999 35.7 80.1999C35.8 80.8999 35.9 81.4999 35.9 82.1999C35.9 87.9999 35.9 93.7999 35.9 99.7999C26.2 92.0999 16.5 92.1999 6.8 99.5999Z" fill="#F7F7F8"/>
<path d="M6.79999 111.8C6.79999 104.5 13.4 98.6 21.4 98.6C29.3 98.6 35.9 104.6 35.9 111.8C35.9 119 29.3 125 21.3 125C13.3 124.9 6.79999 119 6.79999 111.8Z" fill="#F7F7F8"/>
<path d="M21.3 151C16.4 151 11.6 151 6.7 151C5.6 151 5.1 150.8 5.2 149.7C5.4 146.6 4.89998 143.4 5.79998 140.3C7.79998 133.3 15.3 128.6 23.2 129.4C31.2 130.3 37.3 136.3 37.4 143.6C37.4 145.6 37.3 147.5 37.4 149.5C37.5 150.6 37.2 151 35.9 150.9C31 151 26.1 151 21.3 151Z" fill="#F7F7F8"/>
<path d="M8.29999 52.4C8.29999 45.9 14.2 40.6 21.3 40.7C28.5 40.8 34.3 46 34.3 52.5C34.3 58.9 28.4 64.2 21.3 64.2C14.1 64.2 8.29999 58.8 8.29999 52.4Z" fill="#F7F7F8"/>
<path d="M65.2 111.8C65.2 104.5 71.7 98.6 79.7 98.6C87.7 98.6 94.1 104.5 94.2 111.7C94.2 119 87.7 124.9 79.7 124.9C71.7 124.9 65.2 119 65.2 111.8Z" fill="#F7F7F8"/>
<path d="M79.7 151C74.8 151 69.9 151 64.9 151C63.8 151 63.5 150.7 63.5 149.7C63.7 146.5 63.2 143.2 64.1 140.1C66.1 133.4 72.8 129.1 80.9 129.4C88 129.7 94.3 135 95.5 141.6C96 144.5 95.6 147.3 95.8 150.2C95.9 151.1 95.2 151 94.6 151C89.6 151 84.6 151 79.7 151Z" fill="#F7F7F8"/>
<path d="M152.6 111.8C152.6 119 146.1 124.9 138.1 124.9C130.1 124.9 123.5 119 123.5 111.7C123.5 104.5 130.1 98.6 138 98.5C146 98.5 152.6 104.5 152.6 111.8Z" fill="#F7F7F8"/>
<path d="M94.3 70.8C95.8 70.8 97.1 72 97.1 73.3C97.1 74.7 95.8 75.8 94.3 75.8C92.7 75.8 91.4 74.7 91.5 73.2C91.5 71.8 92.8 70.7 94.3 70.8Z" fill="#028984"/>
<path d="M107.5 73.2999C107.5 74.6999 106.3 75.7999 104.7 75.7999C103.1 75.7999 101.8 74.7 101.8 73.2C101.8 71.8 103.1 70.7 104.6 70.7C106.2 70.8 107.5 71.8999 107.5 73.2999Z" fill="#028984"/>
<path d="M115.1 70.7999C116.6 70.7999 117.9 71.8999 117.9 73.2999C117.9 74.6999 116.7 75.7999 115.1 75.7999C113.5 75.7999 112.2 74.7 112.2 73.2C112.3 71.9 113.6 70.7999 115.1 70.7999Z" fill="#028984"/>
<path d="M58.6 18C60.1 18 61.3 19.1 61.4 20.5C61.4 21.9 60.1 23.1 58.5 23.1C57 23 55.8 21.9 55.8 20.5C55.8 19.1 57 18 58.6 18Z" fill="#028984"/>
<path d="M69.1 18C70.6 18 71.8 19.2 71.8 20.6C71.8 22 70.5 23.1 69 23.1C67.4 23.1 66.2 21.9 66.2 20.4C66.3 19.1 67.5 18 69.1 18Z" fill="#028984"/>
<path d="M50.9 20.6C50.9 22 49.7 23.1 48.2 23.2C46.6 23.2 45.4 22 45.4 20.6C45.4 19.2 46.7 18.1 48.2 18.1C49.7 18.1 50.9 19.2 50.9 20.6Z" fill="#028984"/>
</svg>
